<svg xmlns="http://www.w3.org/2000/svg" xmlns:xlink="http://www.w3.org/1999/xlink" width="500" zoomAndPan="magnify" viewBox="0 0 375 374.999991" height="500" preserveAspectRatio="xMidYMid meet" version="1.0"><defs><clipPath id="cb8b7fc161"><path d="M 11.09375 103 L 363.59375 103 L 363.59375 221 L 11.09375 221 Z M 11.09375 103 " clip-rule="nonzero"/></clipPath><clipPath id="639be15db7"><path d="M 156 73.382812 L 223 73.382812 L 223 164 L 156 164 Z M 156 73.382812 " clip-rule="nonzero"/></clipPath></defs><g clip-path="url(#cb8b7fc161)"><path fill="#000000" d="M 90.632812 201.28125 L 262.984375 133.34375 L 261.855469 114.3125 C 300.644531 103.667969 328.324219 101.238281 347.730469 106.183594 C 346.921875 112.371094 337.171875 129.898438 318.429688 158.707031 C 308.078125 177.277344 308.65625 188.933594 320.167969 193.675781 C 324.476562 195.785156 326.355469 199.71875 325.777344 205.449219 L 324.1875 205.535156 C 348.972656 205.996094 363.867188 207.007812 363.898438 208.511719 C 363.957031 211.957031 285.023438 216.667969 187.609375 219.011719 C 90.199219 221.382812 11.152344 220.488281 11.09375 217.074219 C 11.0625 215.398438 29.632812 213.429688 59.914062 211.578125 C 65.324219 204.289062 75.792969 195.699219 91.324219 185.835938 Z M 90.632812 201.28125 " fill-opacity="1" fill-rule="evenodd"/></g><path fill="#f13223" d="M 146.859375 158.300781 L 141.480469 158.621094 L 141.941406 166.488281 L 147.320312 166.167969 Z M 146.859375 158.300781 " fill-opacity="1" fill-rule="evenodd"/><path fill="#f13223" d="M 137.601562 158.824219 L 132.253906 159.140625 L 132.6875 167.007812 L 138.066406 166.71875 Z M 137.601562 158.824219 " fill-opacity="1" fill-rule="evenodd"/><path fill="#f13223" d="M 127.480469 159.402344 L 122.128906 159.71875 L 122.5625 167.585938 L 127.941406 167.296875 Z M 127.480469 159.402344 " fill-opacity="1" fill-rule="evenodd"/><path fill="#f13223" d="M 118.484375 159.921875 L 113.132812 160.242188 L 113.566406 168.109375 L 118.949219 167.820312 Z M 118.484375 159.921875 " fill-opacity="1" fill-rule="evenodd"/><path fill="#000000" d="M 148.765625 156.308594 L 110.761719 158.621094 L 111.484375 173.257812 L 97.488281 173.804688 L 97.804688 181.671875 L 104.253906 184.710938 L 111.628906 184.277344 L 111.832031 187.890625 L 83.023438 199.574219 L 81.203125 169.84375 L 84.992188 167.527344 L 83.371094 139.761719 L 90.632812 139.359375 L 91.992188 163.25 L 99.628906 158.59375 L 98.152344 132.53125 L 105.382812 132.128906 L 106.683594 154.714844 L 114.523438 154.253906 L 136.792969 146.703125 L 137.140625 152.980469 L 152.382812 151.96875 L 153.308594 168.078125 L 149.546875 169.929688 Z M 148.765625 156.308594 " fill-opacity="1" fill-rule="evenodd"/><g clip-path="url(#639be15db7)"><path fill="#f13223" d="M 220.003906 94.207031 L 190.820312 105.257812 L 189.664062 85.011719 L 218.847656 73.960938 Z M 186.65625 106.589844 L 157.472656 117.636719 L 156.316406 97.390625 L 185.5 86.34375 Z M 187.988281 129.667969 L 158.804688 140.71875 L 157.648438 120.472656 L 186.832031 109.421875 Z M 188.132812 132.214844 L 189.289062 152.460938 L 160.105469 163.507812 L 158.949219 143.261719 Z M 192.324219 130.882812 L 221.507812 119.835938 L 222.667969 140.082031 L 193.484375 151.128906 Z M 191.023438 108.09375 L 220.207031 97.042969 L 221.363281 117.289062 L 192.179688 128.339844 Z M 191.023438 108.09375 " fill-opacity="1" fill-rule="evenodd"/></g><path fill="#f13223" d="M 224.980469 116.132812 L 223.824219 95.886719 L 253.007812 84.835938 L 252.6875 84.835938 L 279.761719 74.542969 L 279.933594 77.808594 L 253.179688 88.078125 L 253.007812 85.128906 L 252.976562 84.808594 L 254.132812 105.054688 L 224.949219 116.105469 Z M 254.367188 111.070312 L 254.191406 108.121094 L 254.164062 107.804688 L 255.320312 128.050781 L 226.136719 139.097656 L 224.980469 118.851562 L 254.164062 107.804688 L 253.960938 107.804688 L 280.773438 97.535156 L 280.945312 100.804688 L 254.335938 111.070312 Z M 254.367188 111.070312 " fill-opacity="1" fill-rule="evenodd"/></svg>